Coordinates
version=1
nRows=17
nColumns=36
inDegrees=yes

Units are S.I. units (second, meters, Newtons, ...)
If the header above contains a line with 'inDegrees', this indicates whether rotational values are in degrees (yes) or radians (no).

endheader
time	pelvis_tilt	pelvis_list	pelvis_rotation	pelvis_tx	pelvis_ty	pelvis_tz	hip_flexion_r	hip_adduction_r	hip_rotation_r	knee_angle_r	knee_angle_r_beta	ankle_angle_r	subtalar_angle_r	mtp_angle_r	hip_flexion_l	hip_adduction_l	hip_rotation_l	knee_angle_l	knee_angle_l_beta	ankle_angle_l	subtalar_angle_l	mtp_angle_l	lumbar_extension	lumbar_bending	lumbar_rotation	arm_flex_r	arm_add_r	arm_rot_r	elbow_flex_r	pro_sup_r	arm_flex_l	arm_add_l	arm_rot_l	elbow_flex_l	pro_sup_l
      0.00000000	      7.39512037	     -0.60398930	      1.08577972	      1.06677039	      0.94967902	      0.74593079	     -2.71046465	      4.27211854	      3.90235491	     10.74118214	      0.18746899	      4.76130081	     -8.30413289	     -6.66792248	      8.11400314	     -4.98155879	      2.46278516	     62.81237389	      1.09628274	     -8.49183619	    -15.42931651	     -6.66792248	    -21.68189800	      1.53129399	      1.46673301	      2.25192943	    -10.58359316	     -5.12962122	     27.76182255	     84.81462243	      8.89449502	    -10.07278641	      5.99276639	     21.35682938	     79.84756771
      0.01666670	      5.63721097	      0.03522897	      1.05197875	      1.06171953	      0.94449049	      0.74279760	     -1.03333552	      3.53918752	      5.60140948	     12.36200845	      0.21575775	      6.20521209	     -6.23636554	     -6.74438298	     12.13692737	     -4.55087755	      1.06119608	     61.51143321	      1.07357704	     -6.28646081	    -16.02236189	     -6.74438298	    -20.91832285	      0.76514518	      2.38389064	      1.84185800	    -11.00396570	     -5.63243602	     28.64289926	     83.38722588	      8.64565640	     -9.69339333	      5.50799463	     22.75011753	     78.78492137
      0.03333330	      5.19712923	      0.93602536	      1.03098965	      1.05496271	      0.94179789	      0.74042286	     -1.04935390	      2.28988753	      6.71584339	     13.43755668	      0.23452961	      7.43662544	     -5.05401952	     -6.80360450	     14.21421355	     -3.40375404	      0.49426641	     59.36714869	      1.03615221	     -2.24440741	    -15.05007781	     -6.80360450	    -20.71089298	      0.04467825	      3.03799537	      2.34004258	    -11.38709821	     -5.99454672	     28.92014461	     82.16601778	      8.71898637	     -9.33376318	      5.15047765	     23.19659107	     77.87534396
      0.05000000	      3.86954154	      1.46700476	      1.33085010	      1.04987623	      0.94025529	      0.73915924	     -0.70426175	      1.37975501	      7.12911838	     13.13769411	      0.22929602	      8.71327616	     -3.43634233	     -6.88134860	     17.05357928	     -2.80247851	     -0.29403948	     56.03465439	      0.97798921	     -0.23801999	    -15.18830053	     -6.88134860	    -19.88827203	     -0.23324503	      3.69522587	      2.91512724	    -11.89331093	     -6.06094364	     28.87684791	     79.31061321	      8.59734884	     -8.79576160	      4.90598639	     23.73631493	     75.70724163
      0.06666670	      2.66374068	      1.87904714	      1.37009411	      1.04610127	      0.94025253	      0.73964301	     -0.58337246	      0.72488472	      7.72319882	     12.58700476	      0.21968468	      9.37615984	     -2.61547639	     -6.89266158	     19.52322075	     -2.45810698	     -1.20172707	     52.06159561	      0.90864626	      0.32732904	    -15.48303877	     -6.89266158	    -19.16853854	     -0.61593343	      4.51471013	      3.55541071	    -12.35191644	     -5.91021218	     29.49954710	     78.95071209	      8.25282592	     -8.50594733	      4.93610999	     24.39177225	     75.42662595
      0.08333330	      1.73038086	      2.00545641	      1.36839033	      1.04394974	      0.93878452	      0.73992571	     -0.70508003	      0.43453638	      8.01957783	     12.04408245	      0.21020889	     10.04942043	     -1.50055960	     -6.92581810	     21.49624756	     -2.46887475	     -1.95992551	     47.55631951	      0.83001436	      0.01270461	    -15.67011973	     -6.92581810	    -18.73303141	     -0.81272133	      5.65446364	      4.19608857	    -13.05273281	     -5.07130888	     30.28999499	     77.56822400	      7.96211152	     -8.13371517	      4.85737482	     24.81243882	     74.28154100
      0.10000000	      0.71355988	      1.93038018	      1.33713153	      1.04290901	      0.93515946	      0.73945284	     -0.62334893	      0.40321579	      8.32057309	     11.71239163	      0.20441980	     10.63940763	     -0.86701029	     -6.95057166	     23.31736150	     -2.74790879	     -2.72326126	     42.69881034	      0.74523483	     -0.06811676	    -14.80085144	     -6.95057166	    -17.95809416	     -0.83036205	      6.65278522	      4.76790166	    -13.82369622	     -3.43421174	     31.20220959	     77.66020473	      7.63697648	     -7.83136490	      4.83788971	     24.33748691	     74.44800873
      0.11666670	     -0.14584981	      1.80242875	      1.18178506	      1.04224543	      0.93018459	      0.73863166	     -0.51233197	      0.43150705	      8.63213162	     11.86215167	      0.20703360	     11.75960885	     -0.71721830	     -6.95635440	     24.79238363	     -3.06926678	     -3.45458479	     37.70031849	      0.65799469	     -0.21805535	    -13.47508065	     -6.95635440	    -17.18264732	     -0.79726335	      7.32973347	      5.42570905	    -14.23765089	     -2.81969259	     32.06834188	     77.74196174	      7.02835329	     -7.73713139	      4.69129489	     24.00129354	     74.50092752
      0.13333330	     -0.83381973	      1.58879548	      0.98300336	      1.04268429	      0.92433108	      0.73760665	     -0.50855121	      0.53058061	      8.79686256	     12.36981847	      0.21589406	     13.50926377	     -0.69215677	     -6.95912331	     26.05488624	     -3.42383170	     -4.06678423	     32.98670366	      0.57572659	     -0.24374371	    -11.89733782	     -6.95912331	    -16.40509247	     -0.58821806	      7.95341803	      5.85510510	    -14.67556047	     -2.07185555	     32.85712566	     77.93431991	      6.50211920	     -7.57121900	      4.47572161	     23.53599614	     74.58115104
      0.15000000	     -1.43466516	      1.44391114	      0.65629379	      1.04444937	      0.91940856	      0.73632794	     -0.75702776	      0.55551387	      8.84075554	     12.88143821	      0.22482351	     15.23094775	     -0.11790519	     -6.96087638	     27.12320726	     -3.73412851	     -4.79432059	     28.59736801	      0.49911823	      0.26866927	    -10.05192834	     -6.96087638	    -15.49152811	     -0.50145975	      8.57129525	      5.95934681	    -15.23801937	     -0.76554425	     33.62350588	     78.39056453	      6.05647048	     -7.32731346	      4.06642625	     22.73961225	     74.80466536
      0.16666670	     -1.76852051	      1.23412240	      0.50405207	      1.04583433	      0.91605081	      0.73377519	     -1.66379499	      0.70399354	      8.79100253	     13.07527854	      0.22820666	     16.28166323	      0.73601885	     -6.98072781	     27.93744808	     -3.93064426	     -5.20832793	     24.56739227	      0.42878188	      1.36304925	     -7.97992087	     -6.98072781	    -14.85644980	     -0.20319611	      8.91522071	      6.08684410	    -15.97291528	      1.12286357	     33.97001512	     78.76824167	      5.75433253	     -6.89778105	      3.11072793	     21.79287142	     74.97159935
      0.18333330	     -2.48428547	      1.29296119	      0.51015684	      1.04579652	      0.91368939	      0.73095679	     -2.42237782	      0.64062045	      8.75118256	     13.03054324	      0.22742588	     16.59507351	      1.89864428	     -7.10852131	     29.10804756	     -3.63660169	     -5.25258590	     20.61058523	      0.35972257	      2.77956584	     -6.12499242	     -7.10852131	    -13.80713574	     -0.18041884	      8.01456225	      6.96416304	    -16.54036893	      4.92732417	     33.49403148	     80.12578558	      4.58391084	     -6.60567551	     -0.69023391	     21.93155834	     79.19417511
      0.20000000	     -3.14846220	      1.61729791	      0.58696309	      1.04436622	      0.91340307	      0.72904044	     -3.31514542	      0.35083774	      8.88966342	     12.81010467	      0.22357850	     16.56502012	      3.04632053	     -7.07459743	     30.20981510	     -2.95839384	     -5.05880891	     16.92501650	      0.29539726	      4.66140153	     -3.93262257	     -7.07459743	    -13.04864813	     -0.53363672	      7.96883092	      6.93248325	    -16.63576201	      5.31385633	     33.75515616	     79.52640229	      4.41055741	     -6.51384799	     -0.90220363	     21.42415411	     78.66539984
      0.21666670	     -3.86297190	      2.22172822	      0.70988368	      1.04292017	      0.91203527	      0.72806568	     -4.01438988	     -0.26671256	      8.84061504	     12.67263973	      0.22117929	     16.87381162	      4.43738873	     -7.09252131	     31.35308347	     -1.97185588	     -4.82271710	     13.90936764	      0.24276426	      6.60139575	     -1.50864318	     -7.09252131	    -12.21541122	     -1.22350126	      7.54969366	      7.37677239	    -16.55858514	      6.70758046	     33.52076196	     79.61011924	      4.15878159	     -6.64075177	     -1.03116147	     21.08762904	     78.74094002
      0.23333330	     -4.44704205	      2.94440843	      0.86158152	      1.04169881	      0.90746537	      0.72738388	     -4.66097630	     -1.00923505	      9.08572383	     12.74085395	      0.22236985	     17.25295443	      4.86004940	     -7.09976361	     32.33956175	     -0.82258945	     -4.22057014	     11.97189763	      0.20894903	      7.75401892	     -0.39721619	     -7.09976361	    -11.66422948	     -2.20963399	      7.31310738	      7.62524477	    -16.26852026	      6.95921604	     33.70090280	     79.72068226	      4.11526659	     -6.97185346	     -1.17459810	     20.96162605	     78.79953135
      0.25000000	     -4.70724890	      3.64377072	      0.78052491	      1.04107831	      0.90173465	      0.72667494	     -5.39128601	     -1.83303361	      9.10539814	     13.22909160	      0.23089121	     18.24238034	      5.62507982	     -7.11453490	     32.93975037	      0.11596169	     -4.51786136	     11.45021547	      0.19984396	      8.78443603	      1.20422531	     -7.11453490	    -11.42305884	     -3.19672176	      7.06569515	      8.34968764	    -15.87099841	      7.71960164	     33.47676532	     80.07969336	      4.07696316	     -7.27842866	     -1.55938965	     20.55106815	     78.96516213
      0.26666670	     -4.87884493	      4.09505986	      0.69510877	      1.04143877	      0.89623045	      0.72544748	     -6.13405906	     -2.39604413	      9.37584440	     13.90886571	      0.24275550	     19.15546642	      5.39118453	     -7.12062321	     33.40546851	      0.88674739	     -4.49246096	     12.20630316	      0.21304018	      8.87379305	      1.35017428	     -7.12062321	    -11.22862803	     -3.99102988	      7.24304041	      8.68447046	    -15.54603096	      7.96609368	     33.63044621	     80.10783282	      4.05416291	     -7.62715274	     -1.71299279	     20.52109311	     78.93104976
